<svg width="254" height="37" viewBox="0 0 254 37" fill="none" xmlns="http://www.w3.org/2000/svg">
<g clip-path="url(#clip0_38_1243)">
<path d="M15.6787 22.2758C16.748 22.8552 17.6354 23.7318 18.2385 24.8047C18.8416 25.8775 19.136 27.1029 19.0876 28.3394C19.1148 29.3802 18.9198 30.4145 18.516 31.3703C18.1122 32.326 17.5094 33.1802 16.7497 33.8733C15.1761 35.3147 13.1216 36.0834 11.01 36.0209H0.0136719V9.533H10.2472C12.3066 9.479 14.3088 10.229 15.8469 11.6306C16.5862 12.2999 17.173 13.127 17.566 14.0534C17.9591 14.9798 18.1488 15.9831 18.1218 16.9926C18.1506 18.0078 17.9443 19.0156 17.5197 19.9338C17.0952 20.8519 16.4643 21.6545 15.6787 22.2758V22.2758ZM10.2332 14.401H5.11642V20.2356H10.2332C10.6021 20.2441 10.9688 20.1741 11.3098 20.0299C11.6508 19.8857 11.9587 19.6705 12.214 19.398C12.4769 19.1233 12.683 18.7973 12.8201 18.4394C12.9572 18.0814 13.0225 17.699 13.012 17.3147C13.0244 16.9315 12.9613 16.5496 12.8266 16.1918C12.6919 15.8339 12.4884 15.5074 12.228 15.2315C11.9724 14.9553 11.6624 14.7379 11.3185 14.5935C10.9746 14.4491 10.6047 14.3811 10.2332 14.3939V14.401ZM11.01 31.1457C11.4088 31.1578 11.8056 31.0852 12.1755 30.9324C12.5454 30.7796 12.8803 30.5499 13.159 30.258C13.4418 29.9598 13.6632 29.6066 13.8099 29.2192C13.9566 28.8318 14.0256 28.4182 14.0129 28.003C14.0228 27.5934 13.9525 27.1861 13.8058 26.8049C13.6591 26.4237 13.4391 26.0764 13.159 25.7837C12.8803 25.4918 12.5454 25.2622 12.1755 25.1094C11.8056 24.9566 11.4088 24.8839 11.01 24.896H5.11642V31.1457H11.01Z" fill="#E83A25"/>
<path d="M36.6504 36.0278L31.4077 26.8214H27.5369V36.0278H22.4131V9.53984H32.7936C33.9302 9.5198 35.0587 9.73814 36.1097 10.1814C37.1606 10.6246 38.1118 11.2834 38.9042 12.117C39.7173 12.9216 40.3604 13.8881 40.7938 14.9569C41.2273 16.0257 41.4418 17.174 41.4241 18.331C41.4204 19.9633 40.9322 21.556 40.0242 22.8983C39.1321 24.285 37.8718 25.3826 36.3913 26.0626L42.1381 36.085L36.6504 36.0278ZM27.5509 14.3936V22.2326H32.8146C33.2846 22.2357 33.7496 22.1343 34.1774 21.9352C34.6053 21.7362 34.9857 21.4444 35.2923 21.08C35.9784 20.3247 36.35 19.3259 36.3283 18.2952C36.3523 17.2683 35.9801 16.2731 35.2923 15.5247C34.9826 15.1657 34.6012 14.8789 34.1737 14.6837C33.7462 14.4886 33.2827 14.3896 32.8146 14.3936H27.5509Z" fill="#E83A25"/>
<path d="M62.2198 36.028L60.5749 31.253H49.9215L48.3605 36.028H42.8379L51.9374 9.54004H58.279L67.4276 36.0638L62.2198 36.028ZM51.5874 26.3635H58.888L55.1432 15.5249L51.5874 26.3635Z" fill="#E83A25"/>
<path d="M84.9329 9.50391H90.0497V36.0276H86.1579L75.0425 19.8127V36.0276H69.9258V9.5397H73.8106L84.9329 25.6973V9.50391Z" fill="#E83A25"/>
<path d="M105.162 9.50449C106.831 9.45796 108.491 9.77326 110.033 10.4297C111.575 11.0861 112.963 12.0687 114.107 13.313C115.282 14.5671 116.202 16.0464 116.815 17.6658C117.427 19.2852 117.72 21.0126 117.677 22.7485C117.721 24.4855 117.429 26.2143 116.816 27.8349C116.203 29.4556 115.283 30.9362 114.107 32.191C112.968 33.4343 111.585 34.4175 110.048 35.0763C108.511 35.735 106.856 36.0545 105.19 36.0139H94.8936V9.52597L105.162 9.50449ZM105.162 31.0313C106.184 31.07 107.202 30.8849 108.149 30.4886C109.095 30.0923 109.948 29.4939 110.65 28.7333C112.091 27.1034 112.845 24.9581 112.75 22.7628C112.844 20.5698 112.09 18.4271 110.65 16.7994C109.948 16.0388 109.095 15.4404 108.149 15.0441C107.202 14.6478 106.184 14.4628 105.162 14.5014H99.9753V31.0313H105.162Z" fill="#E83A25"/>
<path d="M129.248 36.5579C126.965 36.6369 124.71 36.0242 122.766 34.7968C121.045 33.6671 119.741 31.9814 119.063 30.0075L123.431 27.3873C124.444 30.0934 126.434 31.4464 129.402 31.4464C130.508 31.5349 131.613 31.2562 132.552 30.6518C132.863 30.4224 133.117 30.1201 133.291 29.7702C133.465 29.4202 133.555 29.0328 133.553 28.6402C133.556 28.2026 133.444 27.7722 133.229 27.3943C133.013 27.0163 132.702 26.7048 132.328 26.4925C130.944 25.7454 129.474 25.1779 127.953 24.803C126.952 24.5076 125.968 24.1539 125.006 23.7435C124.156 23.3547 123.349 22.8748 122.598 22.3117C121.809 21.7317 121.178 20.9556 120.764 20.0566C120.326 19.0581 120.111 17.9723 120.134 16.8781C120.094 15.7907 120.299 14.7084 120.733 13.7151C121.168 12.7219 121.82 11.8444 122.64 11.151C124.325 9.71144 126.465 8.94808 128.66 9.00329C130.616 8.96389 132.541 9.51142 134.197 10.5782C135.814 11.6536 137.104 13.1715 137.921 14.9595L133.623 17.4937C132.587 15.2244 130.928 14.0861 128.66 14.0861C127.769 14.0266 126.886 14.2791 126.154 14.802C125.867 15.0253 125.636 15.3148 125.479 15.647C125.322 15.9792 125.244 16.3446 125.251 16.7134C125.244 17.1116 125.332 17.5054 125.51 17.8601C125.687 18.2147 125.946 18.5192 126.266 18.7465C127.481 19.5039 128.8 20.071 130.179 20.4289L131.978 21.0159C132.384 21.1591 132.937 21.3739 133.644 21.6602C134.209 21.8848 134.754 22.1578 135.275 22.4763C135.733 22.7897 136.173 23.1315 136.591 23.5001C137.035 23.8752 137.416 24.3227 137.717 24.8245C138.016 25.3446 138.251 25.8999 138.417 26.4782C138.61 27.1597 138.705 27.8663 138.697 28.5757C138.741 29.6906 138.527 30.8002 138.073 31.815C137.62 32.8297 136.939 33.7212 136.087 34.4174C134.122 35.9274 131.702 36.6849 129.248 36.5579V36.5579Z" fill="#E83A25"/>
<path d="M158.206 9.50406V14.5153H151.206V36.0421H146.089V14.501H139.09V9.48975L158.206 9.50406Z" fill="#E83A25"/>
<path d="M181.458 32.563C180.215 33.8588 178.727 34.8814 177.084 35.5683C175.441 36.2552 173.678 36.5918 171.903 36.5576C170.13 36.593 168.368 36.2568 166.726 35.5698C165.084 34.8829 163.597 33.8596 162.356 32.563C161.085 31.2887 160.083 29.7617 159.411 28.0761C158.74 26.3906 158.412 24.5822 158.45 22.7624C158.413 20.9437 158.74 19.1365 159.412 17.4521C160.083 15.7677 161.085 14.242 162.356 12.9691C163.596 11.6711 165.083 10.6465 166.725 9.95832C168.367 9.2701 170.129 8.93282 171.903 8.96724C173.678 8.93438 175.441 9.27234 177.084 9.96044C178.727 10.6485 180.215 11.6723 181.458 12.9691C182.736 14.2375 183.745 15.7617 184.422 17.4467C185.099 19.1317 185.429 20.9412 185.392 22.7624C185.429 24.5847 185.099 26.3954 184.422 28.0815C183.746 29.7677 182.736 31.2932 181.458 32.563V32.563ZM165.933 28.9835C166.713 29.785 167.645 30.4155 168.672 30.8364C169.698 31.2574 170.798 31.46 171.903 31.4319C173.008 31.4598 174.107 31.2572 175.132 30.8362C176.157 30.4152 177.088 29.7848 177.867 28.9835C178.665 28.1685 179.29 27.1944 179.705 26.1218C180.119 25.0491 180.313 23.9008 180.275 22.7481C180.311 21.5936 180.116 20.4438 179.702 19.3691C179.288 18.2945 178.663 17.3176 177.867 16.4984C177.09 15.6938 176.16 15.0603 175.134 14.6368C174.109 14.2133 173.009 14.0088 171.903 14.0357C170.797 14.0086 169.696 14.2131 168.67 14.6366C167.643 15.0601 166.712 15.6936 165.933 16.4984C165.137 17.3176 164.512 18.2945 164.098 19.3691C163.684 20.4438 163.489 21.5936 163.525 22.7481C163.481 23.9011 163.67 25.0509 164.08 26.1261C164.489 27.2012 165.11 28.1787 165.905 28.9978L165.933 28.9835Z" fill="#E83A25"/>
<path d="M203.213 36.0279L197.97 26.8215H194.1V36.0279H189.004V9.53996H199.377C200.515 9.51894 201.645 9.7368 202.697 10.1801C203.75 10.6234 204.702 11.2826 205.495 12.1172C206.308 12.9217 206.951 13.8882 207.385 14.957C207.818 16.0258 208.033 17.1742 208.015 18.3311C208.008 19.9628 207.52 21.5545 206.615 22.8985C205.721 24.2835 204.461 25.3807 202.982 26.0627L208.729 36.0852L203.213 36.0279ZM194.114 14.3937V22.2327H199.37C199.842 22.2364 200.308 22.1352 200.737 21.9362C201.166 21.7372 201.548 21.4451 201.855 21.0801C202.541 20.3248 202.913 19.326 202.891 18.2953C202.915 17.2685 202.543 16.2732 201.855 15.5248C201.544 15.1652 201.162 14.8782 200.733 14.683C200.304 14.4879 199.84 14.3892 199.37 14.3937H194.114Z" fill="#E83A25"/>
<path d="M231.526 9.50391L222.629 25.683V36.0276H217.555V25.683L208.7 9.50391H214.475L220.075 20.5429L225.723 9.50391H231.526Z" fill="#E83A25"/>
</g>
<path d="M244.514 13.9365H242.163L242.142 12.5562H244.331C244.633 12.549 244.913 12.4951 245.172 12.3945C245.438 12.2938 245.65 12.15 245.808 11.9631C245.973 11.769 246.056 11.5317 246.056 11.2514C246.056 10.8919 245.995 10.6079 245.873 10.3994C245.751 10.1909 245.546 10.04 245.258 9.94651C244.978 9.85305 244.593 9.80632 244.104 9.80632H242.638V17.5815H241.117V8.43676H244.104C244.816 8.43676 245.431 8.53741 245.948 8.73871C246.466 8.94001 246.865 9.24555 247.145 9.65534C247.426 10.0579 247.566 10.5684 247.566 11.1867C247.566 11.5749 247.476 11.9236 247.296 12.2327C247.116 12.5418 246.854 12.8078 246.509 13.0307C246.164 13.2536 245.743 13.4333 245.247 13.5699C245.226 13.5699 245.201 13.5951 245.172 13.6454C245.15 13.6885 245.129 13.7101 245.107 13.7101C244.985 13.782 244.906 13.8359 244.87 13.8718C244.841 13.9006 244.809 13.9186 244.773 13.9258C244.744 13.933 244.658 13.9365 244.514 13.9365ZM244.406 13.9365L244.622 12.966C245.736 12.966 246.495 13.2032 246.897 13.6777C247.307 14.145 247.512 14.7382 247.512 15.4571V16.0394C247.512 16.3054 247.526 16.5606 247.555 16.8051C247.584 17.0423 247.631 17.2436 247.695 17.409V17.5815H246.132C246.06 17.3946 246.017 17.1286 246.002 16.7835C245.995 16.4384 245.991 16.1868 245.991 16.0286V15.4679C245.991 14.943 245.869 14.5584 245.625 14.314C245.387 14.0624 244.981 13.9365 244.406 13.9365ZM237.817 13.1385C237.817 14.0947 237.983 14.9862 238.313 15.8129C238.644 16.6397 239.104 17.3622 239.694 17.9805C240.283 18.5988 240.966 19.0805 241.743 19.4256C242.519 19.7706 243.349 19.9432 244.234 19.9432C245.118 19.9432 245.945 19.7706 246.714 19.4256C247.49 19.0805 248.17 18.5988 248.752 17.9805C249.342 17.3622 249.802 16.6397 250.132 15.8129C250.463 14.9862 250.628 14.0947 250.628 13.1385C250.628 12.1752 250.463 11.2837 250.132 10.4641C249.802 9.64456 249.342 8.92923 248.752 8.31814C248.17 7.69986 247.49 7.22178 246.714 6.88388C245.945 6.5388 245.118 6.36625 244.234 6.36625C243.349 6.36625 242.519 6.5388 241.743 6.88388C240.966 7.22178 240.283 7.69986 239.694 8.31814C239.104 8.92923 238.644 9.64456 238.313 10.4641C237.983 11.2837 237.817 12.1752 237.817 13.1385ZM236.577 13.1385C236.577 11.9954 236.775 10.935 237.17 9.95729C237.566 8.97955 238.116 8.12762 238.82 7.40151C239.525 6.6682 240.337 6.10025 241.257 5.69765C242.185 5.28786 243.177 5.08297 244.234 5.08297C245.29 5.08297 246.279 5.28786 247.199 5.69765C248.127 6.10025 248.939 6.6682 249.636 7.40151C250.341 8.12762 250.891 8.97955 251.286 9.95729C251.682 10.935 251.879 11.9954 251.879 13.1385C251.879 14.2816 251.682 15.342 251.286 16.3198C250.891 17.2975 250.341 18.1566 249.636 18.8971C248.939 19.6304 248.127 20.202 247.199 20.6118C246.279 21.0216 245.29 21.2265 244.234 21.2265C243.177 21.2265 242.185 21.0216 241.257 20.6118C240.337 20.202 239.525 19.6304 238.82 18.8971C238.116 18.1566 237.566 17.2975 237.17 16.3198C236.775 15.342 236.577 14.2816 236.577 13.1385Z" fill="#E83A25"/>
<defs>
<clipPath id="clip0_38_1243">
<rect width="231.519" height="27.5904" fill="white" transform="translate(0 8.96729)"/>
</clipPath>
</defs>
</svg>
